<?xml version="1.0" standalone="no"?><!DOCTYPE svg PUBLIC "-//W3C//DTD SVG 1.1//EN" "http://www.w3.org/Graphics/SVG/1.1/DTD/svg11.dtd"><svg t="1554121537258" class="icon" style="" viewBox="0 0 1026 1024" version="1.1" xmlns="http://www.w3.org/2000/svg" p-id="812" xmlns:xlink="http://www.w3.org/1999/xlink" width="200.390625" height="200"><defs><style type="text/css"></style></defs><path d="M5.110061 459.849273c3.699684-13.674523 8.176097-27.195744 10.981521-41.05423 41.227972-203.687029 206.931917-361.909845 410.705817-397.286797 281.549027-48.877733 545.335482 140.85372 591.27493 412.075314 43.553049 257.143376-114.245632 506.795403-376.626821 574.294198C366.800174 1078.53457 86.753504 910.485106 19.612414 635.901092c-4.772797-19.525543-9.668235-39.025535-14.502353-58.535748C5.110061 538.191617 5.110061 499.01789 5.110061 459.849273zM79.624969 519.345713c0.01022 238.890238 194.304957 432.009661 434.753764 432.127193 242.038036 0.117531 437.850461-193.206294 437.901561-432.336705 0.051101-239.620977-195.311639-433.798183-436.828449-433.297397C259.759727 86.36514 74.274736 296.88432 79.624969 519.345713z" p-id="813"></path><path d="M652.590551 584.325247c0.792059-13.587652 1.200864-20.629316 1.614779-27.67609 8.089226 0.792059 18.493311-1.354166 23.879315 2.882074 24.579393 19.31603 47.748409 40.420582 71.459092 60.911926-12.039304 21.83018-23.874205 23.572711-37.349435 5.416665-12.356127-16.653689-28.795193-20.389143-49.041255-20.261392-124.96143 0.792059-249.93308 0.398585-379.314713 0.398585-5.702828-10.506285-0.214623-18.355339 18.999207-18.345119 45.970108 0.02555 91.945326 0.209512 137.915434-0.209512 14.405262-0.132862 28.784973-2.611241 43.195345-2.912735 17.517289-0.367924 17.63482-11.998423 17.910764-24.604943 0.306604-14.078218-4.363992-23.291658-20.010999-23.306988-38.305017-0.03577-76.610033-0.066431-114.91505 0.071541-3.31643 0.01022-6.857702 0.756289-9.913518 2.054244-34.053446 14.461472-34.058556 14.512573-34.094327-23.036155-0.03066-34.053446 0.725629-68.127332-0.281053-102.155228-0.531446-18.084506 6.479557-23.680022 23.976406-23.291658 41.692987 0.930031 83.426855 0.362814 125.140282 0.250393 14.24685-0.03577 29.929627 3.101807 30.15447-19.970118 0.235063-23.731123-15.703217-22.535369-31.283793-22.576249-50.226789-0.137972-100.458688-0.061321-150.685477-0.081761-5.958331 0-12.437888 1.400157-17.747242-0.475236-6.929243-2.442609-12.928454-7.50668-19.331361-11.446536 6.213834-3.878536 12.223266-10.634037 18.682383-11.099052 20.327822-1.456367 40.824277-0.546777 61.25941-0.551887 37.456747-0.00511 74.928823-0.572327 112.37024 0.235063 17.338437 0.373034 27.548338-3.444181 27.359266-23.608482-0.056211-5.86635 7.915484-11.804241 12.207936-17.711471 4.803457 6.229164 13.689853 12.483879 13.654083 18.677273-0.122641 18.820354 8.656443 22.801092 25.228371 22.62224 57.03339-0.613207 114.08722-0.689858 171.10528 0.347484 7.51179 0.137972 14.880497 7.930815 22.315636 12.177275-7.307387 3.607703-14.563674 10.225232-21.927271 10.342763-56.1749 0.904481-112.38046-0.03577-168.54514 1.170204-9.024368 0.194182-22.688671 6.024762-25.877349 13.035765-8.084116 17.783012 0.889151 28.616341 21.135212 28.800303 43.415078 0.388365 86.855706 0.950471 130.245233-0.214623 19.505103-0.526336 27.854942 4.604165 26.83804 25.667836-1.558569 32.275145-1.185534 64.708702-0.122641 97.024727 0.597877 18.171377-6.760611 23.828214-24.007066 23.547161-42.551477-0.689858-85.128505 0.163522-127.685092-0.286163-17.895433-0.189072-28.647002 3.495282-28.48348 25.335682 0.158412 21.109662 10.853769 23.322318 27.415477 23.025935C588.914082 583.906222 621.797324 584.325247 652.590551 584.325247zM424.830026 455.955407c18.605732 0 37.216574-0.255503 55.817196 0.081761 14.982699 0.270833 21.206753-6.586869 21.257853-21.523577 0.051101-14.624994-5.268473-22.106124-20.634426-21.988592-37.211464 0.286163-74.428037 0.337264-111.634391-0.03066-15.11045-0.148192-21.411155 6.770831-21.375385 21.467366 0.03577 14.2213 5.171382 22.438278 20.757068 22.085683C387.608342 455.623253 406.224294 455.945187 424.830026 455.955407zM423.634271 517.071735c19.464222 0 38.928444-0.163522 58.387556 0.051101 15.876959 0.178852 19.924128-8.845515 19.837257-22.862413-0.081761-13.516111-5.248033-20.583325-19.372241-20.527115-38.080174 0.163522-76.160348 0.245283-114.235412-0.081761-14.170199-0.122641-19.735055 6.878142-19.939458 20.14897-0.209512 13.526331 3.290879 23.4654 19.474442 23.312098C386.402367 516.933764 405.018319 517.071735 423.634271 517.071735zM604.177834 455.868536c0 0.03066 0 0.061321 0 0.091981 18.651722 0 37.308555-0.275943 55.950057 0.086871 15.06957 0.291273 21.058561-6.535768 21.130102-21.559347 0.071541-14.808957-5.237812-22.080573-20.588435-21.957932-37.298335 0.301494-74.60178 0.229953-111.900114 0.091981-13.735844-0.051101-19.832146 5.943001-19.714615 20.062099 0.112421 13.648973 2.703222 23.50628 19.172949 23.255887C566.874389 455.648803 585.526112 455.868536 604.177834 455.868536zM605.659752 517.041075c18.656832 0 37.313665-0.183962 55.970497 0.056211 16.101802 0.204402 19.627744-9.044808 19.586864-23.025935-0.04088-13.771614-5.401334-20.419803-19.474442-20.348263-37.313665 0.189072-74.63244 0.270833-111.940995-0.097091-15.233092-0.148192-20.854159 6.581758-20.808168 21.615558 0.045991 14.865167 5.442215 22.172554 20.700857 21.922161C568.340977 516.867333 587.002919 517.097286 605.659752 517.041075z" p-id="814"></path><path d="M617.177829 661.921523c22.167444 0.378145 27.369486 10.480735 24.814456 28.181986-6.7044 46.440234-22.969724 62.465385-69.762552 63.814441-39.015315 1.124213-78.112391 1.073113-117.137927 0.01533-46.10297-1.246855-60.768845-16.699679-61.709096-61.939049-0.209512-10.184351-2.013364-20.920589 0.602987-30.389532 2.136005-7.731522 9.765326-13.950466 14.962258-20.838828 4.440643 6.556208 10.746458 12.57586 12.810923 19.811706 2.238207 7.854164 0.398585 16.837651 0.572327 25.320352 0.572327 28.452819 11.267684 39.710283 40.313271 40.349041 31.396214 0.684748 62.817979 0.337264 94.224414 0.199292 41.657217-0.183962 52.327024-9.647795 57.89699-50.640704C615.317767 671.73284 616.166037 667.695891 617.177829 661.921523z" p-id="815"></path><path d="M301.91262 743.570076c-10.409194-4.99764-17.767682-8.528692-26.771609-12.846693 14.987809-29.35219 29.408401-57.600607 44.789684-87.724416 8.109667 3.009826 15.682777 5.815249 26.602977 9.867528C331.30058 683.823244 316.98219 712.935261 301.91262 743.570076z" p-id="816"></path><path d="M757.622744 718.658529c-10.398974 6.959903-17.118704 11.456757-25.366342 16.980732-19.382461-24.492522-37.610048-47.518457-56.036928-70.799894 10.010609-13.827825 19.234269-18.948106 31.227582-4.793237C723.278024 678.728513 739.287845 697.262704 757.622744 718.658529z" p-id="817"></path><path d="M532.882264 693.471039c-18.002745-20.598656-33.430019-38.248806-48.882843-55.929617 22.024363-18.207147 31.477975-13.091976 70.988966 37.656039C548.375969 680.665226 541.676679 686.199422 532.882264 693.471039z" p-id="818"></path></svg>